<svg width="653" height="341" viewBox="0 0 653 341" fill="none" xmlns="http://www.w3.org/2000/svg">
<path fill-rule="evenodd" clip-rule="evenodd" d="M284.995 127.393C268.656 90.6336 231.821 65 189 65C131.01 65 83.9997 112.01 83.9997 170C83.9997 227.99 131.01 275 189 275C231.821 275 268.656 249.366 284.995 212.607C289.942 217.061 294.283 222.357 297.791 228.433C315.385 258.906 305.499 297.704 275.823 316.133L275.846 316.173C250.429 331.307 220.729 340 189 340C161.182 340 134.925 333.319 111.746 321.473C99.9467 333.523 83.4965 341 65.2998 341C29.4013 341 0.299805 311.898 0.299805 276C0.299805 289.807 11.4927 301 25.2998 301C39.1069 301 50.2998 289.807 50.2998 276C50.2998 273.203 49.8403 270.513 48.9928 268.001L48.9998 268L48.973 267.943C48.3877 266.223 47.6202 264.587 46.6935 263.058L46.6562 262.978C38.6332 250.72 32.1508 237.363 27.4841 223.182L27.332 223.236L27.4693 223.137C21.9731 206.419 18.9998 188.557 18.9998 170C18.9998 76.1116 95.1114 0 189 0C220.919 0 250.783 8.7967 276.3 24.098L276.271 24.1482C305.599 42.6878 315.296 81.2477 297.792 111.567C294.283 117.643 289.942 122.939 284.995 127.393ZM0.299805 276C0.299805 275.83 0.301483 275.661 0.304871 275.492L0.301758 275.492C0.300476 275.661 0.299805 275.831 0.299805 276Z" fill="#900C3F"/>
<path fill-rule="evenodd" clip-rule="evenodd" d="M83.9997 170C83.9997 216.647 114.417 256.189 156.5 269.873C166.733 273.201 177.656 275 189 275C231.821 275 268.656 249.366 284.995 212.607C289.942 217.061 294.283 222.357 297.791 228.433C315.385 258.906 305.499 297.704 275.823 316.133L275.846 316.173C250.429 331.307 220.729 340 189 340C161.182 340 134.925 333.319 111.746 321.473C99.9467 333.523 83.4965 341 65.2998 341C29.4013 341 0.299805 311.899 0.299805 276C0.299805 289.807 11.4927 301 25.2998 301C39.1069 301 50.2998 289.807 50.2998 276C50.2998 273.203 49.8403 270.513 48.9928 268.001L48.9998 268L48.973 267.943C48.3877 266.223 47.6202 264.587 46.6936 263.058L46.6562 262.978C38.6332 250.72 32.1508 237.363 27.484 223.182L27.332 223.236L27.4692 223.137C21.9731 206.419 18.9998 188.557 18.9998 170M18.9998 169.924C18.9998 169.782 19.0001 169.641 19.0005 169.5H19.0009C19.2702 111.74 66.1766 65 124 65C135.343 65 146.266 66.7987 156.5 70.1266C114.568 83.7624 84.2174 123.071 84.0009 169.5C84.0005 169.587 84.0002 169.675 84 169.762C83.9998 169.841 83.9998 169.921 83.9997 170M0.299805 276C0.299805 275.831 0.300446 275.661 0.301758 275.492L0.304871 275.492C0.301514 275.661 0.299805 275.83 0.299805 276Z" fill="#C70039"/>
<path fill-rule="evenodd" clip-rule="evenodd" d="M190 339.997C189.667 339.999 189.333 340 189 340C181.137 340 173.399 339.466 165.82 338.433C118.983 327.879 83.9998 286.025 83.9998 236C83.9998 224.472 85.8576 213.377 89.2903 203C103.125 244.823 142.538 275 189 275C231.821 275 268.656 249.366 284.995 212.607C287.873 215.198 290.545 218.073 292.968 221.222C292.968 221.222 292.968 221.222 292.968 221.222C294.71 223.486 296.324 225.892 297.791 228.433C315.385 258.907 305.499 297.705 275.823 316.133L275.846 316.174C250.696 331.149 221.353 339.817 190 339.998V339.997Z" fill="#FF5733"/>
<circle cx="229" cy="170" r="25" fill="#511845"/>
<circle cx="153" cy="170" r="25" fill="#511845"/>
<path d="M367.312 174.469L375.797 179.203C373.891 186.453 370.031 192.078 364.219 196.078C358.438 200.047 351.781 202.031 344.25 202.031C334.375 202.031 326.453 198.828 320.484 192.422C314.516 186.016 311.531 178.094 311.531 168.656C311.531 158.312 314.531 150.078 320.531 143.953C326.531 137.828 334.359 134.766 344.016 134.766C352.547 134.766 359.719 137.094 365.531 141.75V135.797H373.969V156.75H365.531C363.656 152.5 360.766 149.219 356.859 146.906C352.953 144.562 348.844 143.391 344.531 143.391C338.031 143.391 332.688 145.734 328.5 150.422C324.344 155.109 322.266 161.031 322.266 168.188C322.266 175.531 324.5 181.531 328.969 186.188C333.438 190.844 338.734 193.172 344.859 193.172C349.891 193.172 354.469 191.562 358.594 188.344C362.719 185.094 365.625 180.469 367.312 174.469ZM431.859 180.562H393.703C394.266 184.75 395.922 188.141 398.672 190.734C401.422 193.328 404.938 194.625 409.219 194.625C415.438 194.625 420.359 192.125 423.984 187.125L431.859 190.594C429.297 194.562 425.969 197.516 421.875 199.453C417.781 201.359 413.5 202.312 409.031 202.312C402.094 202.312 396.156 200.156 391.219 195.844C386.312 191.5 383.859 185.656 383.859 178.312C383.859 171.344 386.25 165.609 391.031 161.109C395.844 156.609 401.359 154.359 407.578 154.359C413.672 154.359 419.188 156.562 424.125 160.969C429.094 165.344 431.672 171.875 431.859 180.562ZM422.672 174.094C422.047 170.906 420.391 168.031 417.703 165.469C415.016 162.875 411.719 161.578 407.812 161.578C404.25 161.578 401.203 162.75 398.672 165.094C396.141 167.406 394.594 170.406 394.031 174.094H422.672ZM445.406 193.078V143.719H437.344V135.797H454.312V193.078H461.25V201H437.344V193.078H445.406ZM513.188 193.078V201H497.625V195.469C493.312 199.656 488.5 201.75 483.188 201.75C479.062 201.75 475.469 200.406 472.406 197.719C469.375 195.031 467.859 191.594 467.859 187.406C467.859 183.188 469.469 179.688 472.688 176.906C475.938 174.125 479.844 172.734 484.406 172.734C488.656 172.734 492.766 174.016 496.734 176.578V172.078C496.734 169.766 496.516 167.984 496.078 166.734C495.641 165.484 494.609 164.359 492.984 163.359C491.391 162.359 489.297 161.859 486.703 161.859C482.234 161.859 479 163.641 477 167.203L468.469 164.953C472.25 157.891 478.781 154.359 488.062 154.359C491.469 154.359 494.406 154.828 496.875 155.766C499.375 156.672 501.234 157.859 502.453 159.328C503.672 160.766 504.484 162.328 504.891 164.016C505.328 165.703 505.547 168.391 505.547 172.078V193.078H513.188ZM496.734 184.125C492.891 181.125 489 179.625 485.062 179.625C482.594 179.625 480.531 180.344 478.875 181.781C477.219 183.219 476.391 185.078 476.391 187.359C476.391 189.484 477.109 191.266 478.547 192.703C480.016 194.141 482 194.859 484.5 194.859C488.812 194.859 492.891 193.047 496.734 189.422V184.125ZM517.359 163.547V155.625H523.266V148.641L532.172 140.484V155.625H540.562V163.547H532.172V185.578C532.172 189.109 532.359 191.297 532.734 192.141C533.141 192.953 534.125 193.359 535.688 193.359C537.344 193.359 538.969 193.047 540.562 192.422V200.531C538.281 201.344 536 201.75 533.719 201.75C531 201.75 528.797 201.156 527.109 199.969C525.422 198.75 524.359 197.234 523.922 195.422C523.484 193.609 523.266 190.484 523.266 186.047V163.547H517.359ZM596.531 193.078V201H579.797V195.797C574.578 199.766 569.578 201.75 564.797 201.75C561.766 201.75 559.25 201.094 557.25 199.781C555.281 198.438 553.969 196.719 553.312 194.625C552.656 192.5 552.328 189.094 552.328 184.406V163.547H545.906V155.625H561.234V183.281C561.234 186.625 561.328 188.875 561.516 190.031C561.703 191.188 562.25 192.141 563.156 192.891C564.062 193.641 565.203 194.016 566.578 194.016C570.703 194.016 575.109 192.047 579.797 188.109V163.547H571.781V155.625H588.703V193.078H596.531ZM608.016 193.078V143.719H599.859V135.797H616.922V176.531L633.891 162.984H626.344V155.625H651.422V162.984H644.484L627.469 177.141L643.453 193.078H651.422V201H639.75L616.922 178.172V193.078H624.75V201H599.859V193.078H608.016Z" fill="#511845"/>
</svg>
