<svg width="24" height="24" viewBox="0 0 24 24" fill="none" xmlns="http://www.w3.org/2000/svg">
<path d="M16 9V7H12V12.5C11.58 12.19 11.07 12 10.5 12C9.83696 12 9.20107 12.2634 8.73223 12.7322C8.26339 13.2011 8 13.837 8 14.5C8 15.163 8.26339 15.7989 8.73223 16.2678C9.20107 16.7366 9.83696 17 10.5 17C11.163 17 11.7989 16.7366 12.2678 16.2678C12.7366 15.7989 13 15.163 13 14.5V9H16ZM12 2C13.3132 2 14.6136 2.25866 15.8268 2.7612C17.0401 3.26375 18.1425 4.00035 19.0711 4.92893C19.9997 5.85752 20.7362 6.95991 21.2388 8.17317C21.7413 9.38642 22 10.6868 22 12C22 14.6522 20.9464 17.1957 19.0711 19.0711C17.1957 20.9464 14.6522 22 12 22C10.6868 22 9.38642 21.7413 8.17317 21.2388C6.95991 20.7362 5.85752 19.9997 4.92893 19.0711C3.05357 17.1957 2 14.6522 2 12C2 9.34784 3.05357 6.8043 4.92893 4.92893C6.8043 3.05357 9.34784 2 12 2Z" fill="#C70039"/>
</svg>
