<svg width="24" height="24" viewBox="0 0 24 24" fill="none" xmlns="http://www.w3.org/2000/svg">
<path d="M20.22 2H7.78C6.8 2 6 2.8 6 3.78V16.22C6 17.2 6.8 18 7.78 18H20.22C21.2 18 22 17.21 22 16.22V3.78C22 2.8 21.2 2 20.22 2ZM11.06 15H9V12.94L15.06 6.88L17.12 8.94L11.06 15ZM18.7 7.35L17.7 8.35L15.65 6.3L16.65 5.3C16.86 5.08 17.21 5.08 17.42 5.3L18.7 6.58C18.92 6.79 18.92 7.14 18.7 7.35ZM4 6H2V20C2 20.5304 2.21071 21.0391 2.58579 21.4142C2.96086 21.7893 3.46957 22 4 22H18V20H4V6Z" fill="#511845"/>
</svg>
