<svg width="24" height="24" viewBox="0 0 24 24" fill="none" xmlns="http://www.w3.org/2000/svg">
<path d="M16.5 12V3.9C16.5 3.66131 16.4052 3.43239 16.2364 3.2636C16.0676 3.09482 15.8387 3 15.6 3H3.9C3.66131 3 3.43239 3.09482 3.2636 3.2636C3.09482 3.43239 3 3.66131 3 3.9V16.5L6.6 12.9H15.6C15.8387 12.9 16.0676 12.8052 16.2364 12.6364C16.4052 12.4676 16.5 12.2387 16.5 12ZM20.1 6.6H18.3V14.7H6.6V16.5C6.6 16.7387 6.69482 16.9676 6.8636 17.1364C7.03239 17.3052 7.26131 17.4 7.5 17.4H17.4L21 21V7.5C21 7.26131 20.9052 7.03239 20.7364 6.8636C20.5676 6.69482 20.3387 6.6 20.1 6.6Z" fill="#900C3F"/>
</svg>
