<svg width="24" height="24" viewBox="0 0 24 24" fill="none" xmlns="http://www.w3.org/2000/svg">
<path d="M20.8399 2.17969L16.9099 2.95969L19.6499 6.49969L21.6199 6.09969L20.8399 2.17969ZM13.9699 3.53969L11.9999 3.92969L14.7499 7.45969L16.7099 7.06969L13.9699 3.53969ZM9.06993 4.49969L7.09993 4.90969L9.84993 8.43969L11.8099 8.04969L9.06993 4.49969ZM4.15993 5.49969L3.17993 5.68969C2.66032 5.79351 2.20314 6.09929 1.90877 6.53989C1.61441 6.9805 1.50693 7.51991 1.60993 8.03969L1.99993 9.99969L6.89993 9.02969L4.15993 5.49969ZM1.99993 9.99969V19.9997C1.99993 20.5301 2.21065 21.0388 2.58572 21.4139C2.96079 21.789 3.4695 21.9997 3.99993 21.9997H19.9999C21.1099 21.9997 21.9999 21.1097 21.9999 19.9997V9.99969H1.99993Z" fill="#C70039"/>
</svg>
